<?xml version="1.0" encoding="utf-8" standalone="no"?>
<!DOCTYPE svg PUBLIC "-//W3C//DTD SVG 1.1//EN"
  "http://www.w3.org/Graphics/SVG/1.1/DTD/svg11.dtd">
<!-- Created with matplotlib (http://matplotlib.org/) -->
<svg height="441pt" version="1.1" viewBox="0 0 976 441" width="976pt" xmlns="http://www.w3.org/2000/svg" xmlns:xlink="http://www.w3.org/1999/xlink">
 <defs>
  <style type="text/css">
*{stroke-linecap:butt;stroke-linejoin:round;}
  </style>
 </defs>
 <g id="figure_1">
  <g id="patch_1">
   <path d="
M0 441
L976.5 441
L976.5 0
L0 0
z
" style="fill:#ffffff;"/>
  </g>
  <g id="axes_1">
   <g id="patch_2">
    <path d="
M321.704 396.9
L878.85 396.9
L878.85 44.1
L321.704 44.1
z
" style="fill:#ffffff;"/>
   </g>
   <g id="patch_3">
    <path clip-path="url(#p69f0bbf81f)" d="
M321.704 380.498
L506.083 380.498
L506.083 376.165
L321.704 376.165
z
" style="fill:#0000ff;stroke:#000000;"/>
   </g>
   <g id="patch_4">
    <path clip-path="url(#p69f0bbf81f)" d="
M321.704 361.929
L391.448 361.929
L391.448 357.597
L321.704 357.597
z
" style="fill:#0000ff;stroke:#000000;"/>
   </g>
   <g id="patch_5">
    <path clip-path="url(#p69f0bbf81f)" d="
M321.704 343.361
L371.406 343.361
L371.406 339.028
L321.704 339.028
z
" style="fill:#0000ff;stroke:#000000;"/>
   </g>
   <g id="patch_6">
    <path clip-path="url(#p69f0bbf81f)" d="
M321.704 324.793
L364.993 324.793
L364.993 320.46
L321.704 320.46
z
" style="fill:#0000ff;stroke:#000000;"/>
   </g>
   <g id="patch_7">
    <path clip-path="url(#p69f0bbf81f)" d="
M321.704 306.224
L360.183 306.224
L360.183 301.892
L321.704 301.892
z
" style="fill:#0000ff;stroke:#000000;"/>
   </g>
   <g id="patch_8">
    <path clip-path="url(#p69f0bbf81f)" d="
M321.704 287.656
L345.754 287.656
L345.754 283.323
L321.704 283.323
z
" style="fill:#0000ff;stroke:#000000;"/>
   </g>
   <g id="patch_9">
    <path clip-path="url(#p69f0bbf81f)" d="
M321.704 269.087
L334.53 269.087
L334.53 264.755
L321.704 264.755
z
" style="fill:#0000ff;stroke:#000000;"/>
   </g>
   <g id="patch_10">
    <path clip-path="url(#p69f0bbf81f)" d="
M321.704 250.519
L333.729 250.519
L333.729 246.186
L321.704 246.186
z
" style="fill:#0000ff;stroke:#000000;"/>
   </g>
   <g id="patch_11">
    <path clip-path="url(#p69f0bbf81f)" d="
M321.704 231.951
L332.927 231.951
L332.927 227.618
L321.704 227.618
z
" style="fill:#0000ff;stroke:#000000;"/>
   </g>
   <g id="patch_12">
    <path clip-path="url(#p69f0bbf81f)" d="
M321.704 213.382
L332.927 213.382
L332.927 209.049
L321.704 209.049
z
" style="fill:#0000ff;stroke:#000000;"/>
   </g>
   <g id="patch_13">
    <path clip-path="url(#p69f0bbf81f)" d="
M321.704 194.814
L332.927 194.814
L332.927 190.481
L321.704 190.481
z
" style="fill:#0000ff;stroke:#000000;"/>
   </g>
   <g id="patch_14">
    <path clip-path="url(#p69f0bbf81f)" d="
M321.704 176.245
L332.927 176.245
L332.927 171.913
L321.704 171.913
z
" style="fill:#0000ff;stroke:#000000;"/>
   </g>
   <g id="patch_15">
    <path clip-path="url(#p69f0bbf81f)" d="
M321.704 157.677
L332.126 157.677
L332.126 153.344
L321.704 153.344
z
" style="fill:#0000ff;stroke:#000000;"/>
   </g>
   <g id="patch_16">
    <path clip-path="url(#p69f0bbf81f)" d="
M321.704 139.108
L329.721 139.108
L329.721 134.776
L321.704 134.776
z
" style="fill:#0000ff;stroke:#000000;"/>
   </g>
   <g id="patch_17">
    <path clip-path="url(#p69f0bbf81f)" d="
M321.704 120.54
L329.721 120.54
L329.721 116.207
L321.704 116.207
z
" style="fill:#0000ff;stroke:#000000;"/>
   </g>
   <g id="patch_18">
    <path clip-path="url(#p69f0bbf81f)" d="
M321.704 101.972
L329.721 101.972
L329.721 97.6389
L321.704 97.6389
z
" style="fill:#0000ff;stroke:#000000;"/>
   </g>
   <g id="patch_19">
    <path clip-path="url(#p69f0bbf81f)" d="
M321.704 83.4032
L321.704 83.4032
L321.704 79.0705
L321.704 79.0705
z
" style="fill:#0000ff;stroke:#000000;"/>
   </g>
   <g id="patch_20">
    <path clip-path="url(#p69f0bbf81f)" d="
M321.704 64.8347
L321.704 64.8347
L321.704 60.5021
L321.704 60.5021
z
" style="fill:#0000ff;stroke:#000000;"/>
   </g>
   <g id="patch_21">
    <path clip-path="url(#p69f0bbf81f)" d="
M321.704 46.2663
L321.704 46.2663
L321.704 41.9337
L321.704 41.9337
z
" style="fill:#0000ff;stroke:#000000;"/>
   </g>
   <g id="matplotlib.axis_1">
    <g id="xtick_1">
     <g id="line2d_1">
      <defs>
       <path d="
M0 0
L0 -4" id="m93b0483c22" style="stroke:#000000;stroke-width:0.5;"/>
      </defs>
      <g>
       <use style="stroke:#000000;stroke-width:0.5;" x="321.704081633" xlink:href="#m93b0483c22" y="396.9"/>
      </g>
     </g>
     <g id="line2d_2">
      <defs>
       <path d="
M0 0
L0 4" id="m741efc42ff" style="stroke:#000000;stroke-width:0.5;"/>
      </defs>
      <g>
       <use style="stroke:#000000;stroke-width:0.5;" x="321.704081633" xlink:href="#m741efc42ff" y="44.1"/>
      </g>
     </g>
     <g id="text_1">
      <!-- 0 -->
      <defs>
       <path d="
M56.9844 36.375
Q56.9844 16.7969 50.8594 7.64062
Q44.7344 -1.51562 31.8438 -1.51562
Q18.75 -1.51562 12.7188 7.76562
Q6.6875 17.0469 6.6875 36.2812
Q6.6875 55.6719 12.7812 64.9219
Q18.8906 74.1719 31.8438 74.1719
Q44.9219 74.1719 50.9531 64.7656
Q56.9844 55.375 56.9844 36.375
M44.1406 14.2031
Q45.8438 18.1719 46.4531 23.5156
Q47.0781 28.8594 47.0781 36.375
Q47.0781 43.7969 46.4531 49.2656
Q45.8438 54.7344 44.0938 58.5469
Q42.3906 62.3125 39.4219 64.2031
Q36.4688 66.1094 31.8438 66.1094
Q27.25 66.1094 24.2344 64.2031
Q21.2344 62.3125 19.4844 58.4531
Q17.8281 54.8281 17.2188 49.0156
Q16.6094 43.2188 16.6094 36.2812
Q16.6094 28.6562 17.1406 23.5312
Q17.6719 18.4062 19.4375 14.3594
Q21.0469 10.5469 24 8.54688
Q26.9531 6.54688 31.8438 6.54688
Q36.4219 6.54688 39.4531 8.45312
Q42.4844 10.3594 44.1406 14.2031" id="Verdana-30"/>
      </defs>
      <g transform="translate(318.686269133 410.018125)scale(0.12 -0.12)">
       <use xlink:href="#Verdana-30"/>
      </g>
     </g>
    </g>
    <g id="xtick_2">
     <g id="line2d_3">
      <g>
       <use style="stroke:#000000;stroke-width:0.5;" x="433.133265306" xlink:href="#m93b0483c22" y="396.9"/>
      </g>
     </g>
     <g id="line2d_4">
      <g>
       <use style="stroke:#000000;stroke-width:0.5;" x="433.133265306" xlink:href="#m741efc42ff" y="44.1"/>
      </g>
     </g>
     <g id="text_2">
      <!-- 20 -->
      <defs>
       <path d="
M57.0781 0
L7.85938 0
L7.85938 10.2031
Q12.9844 14.5938 18.1406 18.9844
Q23.2969 23.3906 27.7344 27.7344
Q37.1094 36.8125 40.5781 42.1562
Q44.0469 47.5156 44.0469 53.7188
Q44.0469 59.375 40.3125 62.5625
Q36.5781 65.7656 29.8906 65.7656
Q25.4375 65.7656 20.2656 64.2031
Q15.0938 62.6406 10.1562 59.4219
L9.67188 59.4219
L9.67188 69.6719
Q13.1406 71.3906 18.9219 72.7969
Q24.7031 74.2188 30.125 74.2188
Q41.3125 74.2188 47.6562 68.8125
Q54 63.4219 54 54.2031
Q54 50.0469 52.9531 46.4531
Q51.9062 42.875 49.8594 39.6562
Q47.9531 36.625 45.3906 33.6875
Q42.8281 30.7656 39.1562 27.2031
Q33.9375 22.0781 28.3594 17.2656
Q22.7969 12.4531 17.9688 8.34375
L57.0781 8.34375
z
" id="Verdana-32"/>
      </defs>
      <g transform="translate(426.371077806 410.018125)scale(0.12 -0.12)">
       <use xlink:href="#Verdana-32"/>
       <use x="63.57421875" xlink:href="#Verdana-30"/>
      </g>
     </g>
    </g>
    <g id="xtick_3">
     <g id="line2d_5">
      <g>
       <use style="stroke:#000000;stroke-width:0.5;" x="544.56244898" xlink:href="#m93b0483c22" y="396.9"/>
      </g>
     </g>
     <g id="line2d_6">
      <g>
       <use style="stroke:#000000;stroke-width:0.5;" x="544.56244898" xlink:href="#m741efc42ff" y="44.1"/>
      </g>
     </g>
     <g id="text_3">
      <!-- 40 -->
      <defs>
       <path d="
M58.7344 20.4531
L47.9531 20.4531
L47.9531 0
L38.5781 0
L38.5781 20.4531
L3.76562 20.4531
L3.76562 31.6875
L38.9688 72.7031
L47.9531 72.7031
L47.9531 28.2656
L58.7344 28.2656
z

M38.5781 28.2656
L38.5781 61.0781
L10.4062 28.2656
z
" id="Verdana-34"/>
      </defs>
      <g transform="translate(537.55463648 410.018125)scale(0.12 -0.12)">
       <use xlink:href="#Verdana-34"/>
       <use x="63.57421875" xlink:href="#Verdana-30"/>
      </g>
     </g>
    </g>
    <g id="xtick_4">
     <g id="line2d_7">
      <g>
       <use style="stroke:#000000;stroke-width:0.5;" x="655.991632653" xlink:href="#m93b0483c22" y="396.9"/>
      </g>
     </g>
     <g id="line2d_8">
      <g>
       <use style="stroke:#000000;stroke-width:0.5;" x="655.991632653" xlink:href="#m741efc42ff" y="44.1"/>
      </g>
     </g>
     <g id="text_4">
      <!-- 60 -->
      <defs>
       <path d="
M58.1562 23.5781
Q58.1562 12.5 50.8594 5.48438
Q43.5625 -1.51562 32.9531 -1.51562
Q27.5938 -1.51562 23.1875 0.140625
Q18.7969 1.8125 15.4375 5.07812
Q11.2344 9.125 8.95312 15.8125
Q6.6875 22.5156 6.6875 31.9375
Q6.6875 41.6094 8.76562 49.0781
Q10.8438 56.5469 15.375 62.3594
Q19.6719 67.875 26.4531 70.9688
Q33.25 74.0781 42.2812 74.0781
Q45.1719 74.0781 47.125 73.8281
Q49.0781 73.5781 51.0781 72.9531
L51.0781 63.625
L50.5938 63.625
Q49.2188 64.3594 46.4531 65.0156
Q43.7031 65.6719 40.8281 65.6719
Q30.3281 65.6719 24.0781 59.1094
Q17.8281 52.5469 16.7969 41.3594
Q20.9062 43.8438 24.875 45.1406
Q28.8594 46.4375 34.0781 46.4375
Q38.7188 46.4375 42.25 45.5781
Q45.7969 44.7344 49.5156 42.1406
Q53.8125 39.1562 55.9844 34.6094
Q58.1562 30.0781 58.1562 23.5781
M48.25 23.1875
Q48.25 27.7344 46.9062 30.7031
Q45.5625 33.6875 42.4844 35.8906
Q40.2344 37.4531 37.5 37.9375
Q34.7656 38.4219 31.7812 38.4219
Q27.6406 38.4219 24.0781 37.4375
Q20.5156 36.4688 16.75 34.4219
Q16.6562 33.3438 16.5938 32.3438
Q16.5469 31.3438 16.5469 29.8281
Q16.5469 22.125 18.1406 17.6562
Q19.7344 13.1875 22.5156 10.5938
Q24.75 8.45312 27.3594 7.45312
Q29.9844 6.45312 33.0625 6.45312
Q40.1406 6.45312 44.1875 10.7656
Q48.25 15.0938 48.25 23.1875" id="Verdana-36"/>
      </defs>
      <g transform="translate(649.159132653 410.018125)scale(0.12 -0.12)">
       <use xlink:href="#Verdana-36"/>
       <use x="63.57421875" xlink:href="#Verdana-30"/>
      </g>
     </g>
    </g>
    <g id="xtick_5">
     <g id="line2d_9">
      <g>
       <use style="stroke:#000000;stroke-width:0.5;" x="767.420816327" xlink:href="#m93b0483c22" y="396.9"/>
      </g>
     </g>
     <g id="line2d_10">
      <g>
       <use style="stroke:#000000;stroke-width:0.5;" x="767.420816327" xlink:href="#m741efc42ff" y="44.1"/>
      </g>
     </g>
     <g id="text_5">
      <!-- 80 -->
      <defs>
       <path d="
M57.625 20.2656
Q57.625 10.8438 50.2656 4.59375
Q42.9219 -1.65625 31.7812 -1.65625
Q19.9688 -1.65625 12.9531 4.4375
Q5.95312 10.5469 5.95312 20.0625
Q5.95312 26.125 9.46875 31.0312
Q12.9844 35.9375 19.3906 38.8125
L19.3906 39.1094
Q13.5312 42.2344 10.7188 45.9375
Q7.90625 49.6562 7.90625 55.2188
Q7.90625 63.4219 14.6406 68.8906
Q21.3906 74.3594 31.7812 74.3594
Q42.6719 74.3594 49.1719 69.1406
Q55.6719 63.9219 55.6719 55.8594
Q55.6719 50.9219 52.5938 46.1562
Q49.5156 41.4062 43.5625 38.7188
L43.5625 38.4219
Q50.3906 35.5 54 31.2031
Q57.625 26.9062 57.625 20.2656
M46.0469 55.7656
Q46.0469 60.9844 42.0156 64.0781
Q37.9844 67.1875 31.7344 67.1875
Q25.5938 67.1875 21.6562 64.25
Q17.7188 61.3281 17.7188 56.3438
Q17.7188 52.8281 19.7031 50.2656
Q21.6875 47.7031 25.6875 45.7031
Q27.4844 44.8281 30.875 43.4062
Q34.2812 42 37.5 41.0625
Q42.3281 44.2812 44.1875 47.75
Q46.0469 51.2188 46.0469 55.7656
M47.5625 19.3438
Q47.5625 23.8281 45.5781 26.5312
Q43.6094 29.25 37.8438 31.9844
Q35.5469 33.0625 32.8125 33.9844
Q30.0781 34.9062 25.5312 36.5781
Q21.1406 34.1875 18.4844 30.0781
Q15.8281 25.9844 15.8281 20.7969
Q15.8281 14.2031 20.3594 9.90625
Q24.9062 5.60938 31.8906 5.60938
Q39.0156 5.60938 43.2812 9.26562
Q47.5625 12.9375 47.5625 19.3438" id="Verdana-38"/>
      </defs>
      <g transform="translate(760.544253827 410.018125)scale(0.12 -0.12)">
       <use xlink:href="#Verdana-38"/>
       <use x="63.57421875" xlink:href="#Verdana-30"/>
      </g>
     </g>
    </g>
    <g id="xtick_6">
     <g id="line2d_11">
      <g>
       <use style="stroke:#000000;stroke-width:0.5;" x="878.85" xlink:href="#m93b0483c22" y="396.9"/>
      </g>
     </g>
     <g id="line2d_12">
      <g>
       <use style="stroke:#000000;stroke-width:0.5;" x="878.85" xlink:href="#m741efc42ff" y="44.1"/>
      </g>
     </g>
     <g id="text_6">
      <!-- 100 -->
      <defs>
       <path d="
M52.9375 0
L13.5781 0
L13.5781 7.42188
L28.7188 7.42188
L28.7188 56.1562
L13.5781 56.1562
L13.5781 62.7969
Q16.6562 62.7969 20.1719 63.2969
Q23.6875 63.8125 25.4844 64.7969
Q27.7344 66.0156 29.0312 67.8906
Q30.3281 69.7812 30.5156 72.9531
L38.0938 72.9531
L38.0938 7.42188
L52.9375 7.42188
z
" id="Verdana-31"/>
      </defs>
      <g transform="translate(868.61625 410.018125)scale(0.12 -0.12)">
       <use xlink:href="#Verdana-31"/>
       <use x="63.57421875" xlink:href="#Verdana-30"/>
       <use x="127.1484375" xlink:href="#Verdana-30"/>
      </g>
     </g>
    </g>
    <g id="text_7">
     <!-- % fiches -->
     <defs>
      <path d="
M38.375 67.0938
L37.8906 67.0938
Q36.375 67.5312 33.9375 67.9844
Q31.5 68.4531 29.6406 68.4531
Q23.7344 68.4531 21.0625 65.8438
Q18.4062 63.2344 18.4062 56.3906
L18.4062 54.5469
L34.9688 54.5469
L34.9688 46.8281
L18.7031 46.8281
L18.7031 0
L9.51562 0
L9.51562 46.8281
L3.32812 46.8281
L3.32812 54.5469
L9.51562 54.5469
L9.51562 56.3438
Q9.51562 66.0625 14.3438 71.2656
Q19.1875 76.4688 28.3281 76.4688
Q31.3906 76.4688 33.8594 76.1719
Q36.3281 75.875 38.375 75.4844
z
" id="Verdana-66"/>
      <path d="
M54.6875 26.3125
L14.5 26.3125
Q14.5 21.2969 16.0156 17.5469
Q17.5312 13.8125 20.1719 11.4219
Q22.7031 9.07812 26.1875 7.90625
Q29.6875 6.73438 33.8906 6.73438
Q39.4531 6.73438 45.0938 8.95312
Q50.7344 11.1875 53.125 13.3281
L53.6094 13.3281
L53.6094 3.32812
Q48.9688 1.375 44.1406 0.046875
Q39.3125 -1.26562 33.9844 -1.26562
Q20.4062 -1.26562 12.7812 6.07812
Q5.17188 13.4219 5.17188 26.9531
Q5.17188 40.3281 12.4688 48.1875
Q19.7812 56.0625 31.6875 56.0625
Q42.7188 56.0625 48.7031 49.6094
Q54.6875 43.1719 54.6875 31.2969
z

M45.75 33.3438
Q45.7031 40.5781 42.1094 44.5312
Q38.5312 48.4844 31.2031 48.4844
Q23.8281 48.4844 19.4531 44.1406
Q15.0938 39.7969 14.5 33.3438
z
" id="Verdana-65"/>
      <path d="
M49.3594 3.42188
Q44.7812 1.21875 40.6562 0
Q36.5312 -1.21875 31.8906 -1.21875
Q25.9844 -1.21875 21.0469 0.515625
Q16.1094 2.25 12.5938 5.76562
Q9.03125 9.28125 7.07812 14.6406
Q5.125 20.0156 5.125 27.2031
Q5.125 40.5781 12.4688 48.1875
Q19.8281 55.8125 31.8906 55.8125
Q36.5781 55.8125 41.0938 54.4844
Q45.6094 53.1719 49.3594 51.2656
L49.3594 41.0625
L48.875 41.0625
Q44.6719 44.3438 40.2031 46.0938
Q35.75 47.8594 31.5 47.8594
Q23.6875 47.8594 19.1719 42.6094
Q14.6562 37.3594 14.6562 27.2031
Q14.6562 17.3281 19.0625 12.0312
Q23.4844 6.73438 31.5 6.73438
Q34.2812 6.73438 37.1562 7.46875
Q40.0469 8.20312 42.3281 9.375
Q44.3438 10.4062 46.0938 11.5469
Q47.8594 12.7031 48.875 13.5312
L49.3594 13.5312
z
" id="Verdana-63"/>
      <path d="
M48 15.7188
Q48 8.25 41.8125 3.46875
Q35.6406 -1.3125 24.9531 -1.3125
Q18.8906 -1.3125 13.8438 0.125
Q8.79688 1.5625 5.375 3.26562
L5.375 13.5781
L5.85938 13.5781
Q10.2031 10.2969 15.5156 8.375
Q20.8438 6.45312 25.7344 6.45312
Q31.7812 6.45312 35.2031 8.40625
Q38.625 10.3594 38.625 14.5469
Q38.625 17.7812 36.7656 19.4375
Q34.9062 21.0938 29.6406 22.2656
Q27.6875 22.7031 24.5312 23.2812
Q21.3906 23.875 18.7969 24.5625
Q11.625 26.4688 8.60938 30.1562
Q5.60938 33.8438 5.60938 39.2031
Q5.60938 42.5781 7 45.5469
Q8.40625 48.5312 11.2344 50.875
Q13.9688 53.1719 18.1875 54.5156
Q22.4062 55.8594 27.6406 55.8594
Q32.5156 55.8594 37.5156 54.6562
Q42.5312 53.4688 45.8438 51.7656
L45.8438 41.9375
L45.3594 41.9375
Q41.8438 44.5312 36.8125 46.3125
Q31.7812 48.0938 26.9531 48.0938
Q21.9219 48.0938 18.4531 46.1562
Q14.9844 44.2344 14.9844 40.4375
Q14.9844 37.0625 17.0938 35.3594
Q19.1406 33.6406 23.7344 32.5625
Q26.2656 31.9844 29.4062 31.3906
Q32.5625 30.8125 34.6719 30.3281
Q41.0625 28.8594 44.5312 25.2969
Q48 21.6875 48 15.7188" id="Verdana-73"/>
      <path id="Verdana-20"/>
      <path d="
M54.6406 0
L45.4531 0
L45.4531 31.0625
Q45.4531 34.8125 45.0156 38.1094
Q44.5781 41.4062 43.4062 43.2656
Q42.1875 45.3125 39.8906 46.3125
Q37.5938 47.3125 33.9375 47.3125
Q30.1719 47.3125 26.0625 45.4531
Q21.9688 43.6094 18.2188 40.7188
L18.2188 0
L9.03125 0
L9.03125 75.9844
L18.2188 75.9844
L18.2188 48.4844
Q22.5156 52.0469 27.0938 54.0469
Q31.6875 56.0625 36.5312 56.0625
Q45.3594 56.0625 50 50.7344
Q54.6406 45.4062 54.6406 35.4062
z
" id="Verdana-68"/>
      <path d="
M18.8906 63.6719
L8.54688 63.6719
L8.54688 73.1875
L18.8906 73.1875
z

M18.3125 0
L9.125 0
L9.125 54.5469
L18.3125 54.5469
z
" id="Verdana-69"/>
      <path d="
M43.1719 52.5469
Q43.1719 41.6094 38.5469 36.2812
Q33.9375 30.9531 25.25 30.9531
Q16.3594 30.9531 11.8125 36.2812
Q7.28125 41.6094 7.28125 52.4844
Q7.28125 63.4219 11.9062 68.75
Q16.5469 74.0781 25.25 74.0781
Q34.0781 74.0781 38.625 68.7031
Q43.1719 63.3281 43.1719 52.5469
M76.9062 72.7031
L38.8125 0
L30.7656 0
L68.8438 72.7031
z

M100.344 20.1719
Q100.344 9.23438 95.7031 3.90625
Q91.0625 -1.42188 82.375 -1.42188
Q73.5312 -1.42188 68.9844 3.95312
Q64.4531 9.32812 64.4531 20.125
Q64.4531 31.0625 69.0625 36.375
Q73.6875 41.7031 82.375 41.7031
Q91.2656 41.7031 95.7969 36.375
Q100.344 31.0625 100.344 20.1719
M34.4688 52.5469
Q34.4688 60.9375 32.2969 64.25
Q30.125 67.5781 25.25 67.5781
Q20.2656 67.5781 18.1094 64.25
Q15.9688 60.9375 15.9688 52.4844
Q15.9688 44.0469 18.1094 40.75
Q20.2656 37.4531 25.25 37.4531
Q30.125 37.4531 32.2969 40.75
Q34.4688 44.0469 34.4688 52.5469
M91.6562 20.1719
Q91.6562 28.5625 89.4844 31.875
Q87.3125 35.2031 82.4219 35.2031
Q77.4375 35.2031 75.2812 31.875
Q73.1406 28.5625 73.1406 20.125
Q73.1406 11.6719 75.2812 8.375
Q77.4375 5.07812 82.4219 5.07812
Q87.3125 5.07812 89.4844 8.375
Q91.6562 11.6719 91.6562 20.1719" id="Verdana-25"/>
     </defs>
     <g transform="translate(574.577353316 426.55125)scale(0.12 -0.12)">
      <use xlink:href="#Verdana-25"/>
      <use x="107.6171875" xlink:href="#Verdana-20"/>
      <use x="142.7734375" xlink:href="#Verdana-66"/>
      <use x="177.9296875" xlink:href="#Verdana-69"/>
      <use x="205.37109375" xlink:href="#Verdana-63"/>
      <use x="257.470703125" xlink:href="#Verdana-68"/>
      <use x="320.751953125" xlink:href="#Verdana-65"/>
      <use x="380.322265625" xlink:href="#Verdana-73"/>
     </g>
    </g>
   </g>
   <g id="matplotlib.axis_2">
    <g id="ytick_1">
     <g id="text_8">
      <!-- imagerie/cartes de base/occupation des terres -->
      <defs>
       <path d="
M54.25 0
L45.0625 0
L45.0625 6.0625
Q40.4375 2.39062 36.1875 0.4375
Q31.9375 -1.51562 26.8125 -1.51562
Q18.2188 -1.51562 13.4219 3.73438
Q8.64062 8.98438 8.64062 19.1406
L8.64062 54.5469
L17.8281 54.5469
L17.8281 23.4844
Q17.8281 19.3438 18.2188 16.375
Q18.6094 13.4219 19.875 11.3281
Q21.1875 9.1875 23.2812 8.20312
Q25.3906 7.23438 29.3906 7.23438
Q32.9531 7.23438 37.1719 9.07812
Q41.4062 10.9375 45.0625 13.8125
L45.0625 54.5469
L54.25 54.5469
z
" id="Verdana-75"/>
       <path d="
M37.3594 0.484375
Q34.7656 -0.203125 31.7031 -0.640625
Q28.6562 -1.07812 26.2656 -1.07812
Q17.9219 -1.07812 13.5781 3.40625
Q9.23438 7.90625 9.23438 17.8281
L9.23438 46.8281
L3.03125 46.8281
L3.03125 54.5469
L9.23438 54.5469
L9.23438 70.2188
L18.4062 70.2188
L18.4062 54.5469
L37.3594 54.5469
L37.3594 46.8281
L18.4062 46.8281
L18.4062 21.9688
Q18.4062 17.6719 18.5938 15.25
Q18.7969 12.8438 19.9688 10.75
Q21.0469 8.79688 22.9219 7.89062
Q24.8125 6.98438 28.6562 6.98438
Q30.9062 6.98438 33.3438 7.64062
Q35.7969 8.29688 36.8594 8.73438
L37.3594 8.73438
z
" id="Verdana-74"/>
       <path d="
M51.4219 0
L42.2812 0
L42.2812 5.8125
Q41.0625 4.98438 38.9844 3.48438
Q36.9219 2 34.9688 1.125
Q32.6719 0 29.6875 -0.75
Q26.7031 -1.51562 22.7031 -1.51562
Q15.3281 -1.51562 10.2031 3.35938
Q5.07812 8.25 5.07812 15.8281
Q5.07812 22.0156 7.73438 25.8438
Q10.4062 29.6875 15.3281 31.8906
Q20.3125 34.0781 27.2969 34.8594
Q34.2812 35.6406 42.2812 36.0312
L42.2812 37.4531
Q42.2812 40.5781 41.1875 42.625
Q40.0938 44.6719 38.0312 45.8438
Q36.0781 46.9688 33.3438 47.3594
Q30.6094 47.75 27.6406 47.75
Q24.0312 47.75 19.5781 46.7969
Q15.1406 45.8438 10.4062 44.0469
L9.90625 44.0469
L9.90625 53.375
Q12.5938 54.1094 17.6719 54.9844
Q22.75 55.8594 27.6875 55.8594
Q33.4531 55.8594 37.7188 54.9062
Q42 53.9531 45.125 51.6562
Q48.1875 49.4219 49.7969 45.8438
Q51.4219 42.2812 51.4219 37.0156
z

M42.2812 13.4219
L42.2812 28.6094
Q38.0938 28.375 32.3906 27.875
Q26.7031 27.3906 23.3906 26.4688
Q19.4375 25.3438 16.9844 22.9688
Q14.5469 20.6094 14.5469 16.4531
Q14.5469 11.7656 17.375 9.39062
Q20.2188 7.03125 26.0312 7.03125
Q30.8594 7.03125 34.8594 8.90625
Q38.875 10.7969 42.2812 13.4219" id="Verdana-61"/>
       <path d="
M57.0312 27.6875
Q57.0312 20.8438 55.0938 15.375
Q53.1719 9.90625 49.9062 6.20312
Q46.4375 2.34375 42.2812 0.40625
Q38.1406 -1.51562 33.1562 -1.51562
Q28.5156 -1.51562 25.0469 -0.40625
Q21.5781 0.6875 18.2188 2.54688
L17.625 0
L9.03125 0
L9.03125 75.9844
L18.2188 75.9844
L18.2188 48.8281
Q22.0781 52 26.4219 54.0312
Q30.7656 56.0625 36.1875 56.0625
Q45.8438 56.0625 51.4375 48.6406
Q57.0312 41.2188 57.0312 27.6875
M47.5625 27.4375
Q47.5625 37.2031 44.3281 42.25
Q41.1094 47.3125 33.9375 47.3125
Q29.9375 47.3125 25.8281 45.5781
Q21.7344 43.8438 18.2188 41.1094
L18.2188 9.85938
Q22.125 8.10938 24.9219 7.42188
Q27.7344 6.73438 31.2969 6.73438
Q38.9219 6.73438 43.2344 11.7344
Q47.5625 16.75 47.5625 27.4375" id="Verdana-62"/>
       <path d="
M57.0312 27.9375
Q57.0312 21.2969 55.125 15.7969
Q53.2188 10.2969 49.75 6.5
Q46.5312 2.875 42.1562 0.890625
Q37.7969 -1.07812 32.9062 -1.07812
Q28.6562 -1.07812 25.2188 -0.140625
Q21.7812 0.78125 18.2188 2.73438
L18.2188 -20.125
L9.03125 -20.125
L9.03125 54.5469
L18.2188 54.5469
L18.2188 48.8281
Q21.875 51.9062 26.4375 53.9844
Q31 56.0625 36.1875 56.0625
Q46.0469 56.0625 51.5312 48.6094
Q57.0312 41.1562 57.0312 27.9375
M47.5625 27.6875
Q47.5625 37.5469 44.1875 42.4219
Q40.8281 47.3125 33.8438 47.3125
Q29.8906 47.3125 25.875 45.5938
Q21.875 43.8906 18.2188 41.1094
L18.2188 10.2031
Q22.125 8.45312 24.9219 7.8125
Q27.7344 7.17188 31.2969 7.17188
Q38.9688 7.17188 43.2656 12.3438
Q47.5625 17.5312 47.5625 27.6875" id="Verdana-70"/>
       <path d="
M53.2656 6.20312
Q53.2656 -7.67188 46.9688 -14.1562
Q40.6719 -20.6562 27.5938 -20.6562
Q23.25 -20.6562 19.1094 -20.0469
Q14.9844 -19.4375 10.9844 -18.3125
L10.9844 -8.9375
L11.4688 -8.9375
Q13.7188 -9.8125 18.5938 -11.1094
Q23.4844 -12.4062 28.375 -12.4062
Q33.0625 -12.4062 36.125 -11.2812
Q39.2031 -10.1562 40.9219 -8.15625
Q42.625 -6.25 43.3594 -3.5625
Q44.0938 -0.875 44.0938 2.4375
L44.0938 7.42188
Q39.9375 4.10938 36.1562 2.46875
Q32.375 0.828125 26.5156 0.828125
Q16.75 0.828125 11.0156 7.875
Q5.28125 14.9375 5.28125 27.7812
Q5.28125 34.8125 7.25 39.9062
Q9.23438 45.0156 12.6406 48.7344
Q15.8281 52.2031 20.3594 54.125
Q24.9062 56.0625 29.3906 56.0625
Q34.125 56.0625 37.3281 55.1094
Q40.5312 54.1562 44.0938 52.2031
L44.6719 54.5469
L53.2656 54.5469
z

M44.0938 14.9844
L44.0938 44.7344
Q40.4375 46.3906 37.2812 47.0938
Q34.125 47.7969 31 47.7969
Q23.4375 47.7969 19.0938 42.7188
Q14.75 37.6406 14.75 27.9844
Q14.75 18.7969 17.9688 14.0625
Q21.1875 9.32812 28.6562 9.32812
Q32.6719 9.32812 36.6875 10.8594
Q40.7188 12.4062 44.0938 14.9844" id="Verdana-67"/>
       <path d="
M43.0625 44.5312
L42.5781 44.5312
Q40.5312 45.0156 38.5938 45.2344
Q36.6719 45.4531 34.0312 45.4531
Q29.7812 45.4531 25.8281 43.5781
Q21.875 41.7031 18.2188 38.7188
L18.2188 0
L9.03125 0
L9.03125 54.5469
L18.2188 54.5469
L18.2188 46.4844
Q23.6875 50.875 27.8594 52.7031
Q32.0312 54.5469 36.375 54.5469
Q38.7656 54.5469 39.8438 54.4219
Q40.9219 54.2969 43.0625 53.9531
z
" id="Verdana-72"/>
       <path d="
M53.2656 0
L44.0938 0
L44.0938 5.71875
Q40.1406 2.29688 35.8438 0.390625
Q31.5469 -1.51562 26.5156 -1.51562
Q16.75 -1.51562 11.0156 6
Q5.28125 13.5312 5.28125 26.8594
Q5.28125 33.7969 7.25 39.2031
Q9.23438 44.625 12.5938 48.4375
Q15.9219 52.1562 20.3281 54.1094
Q24.75 56.0625 29.5 56.0625
Q33.7969 56.0625 37.1094 55.1562
Q40.4375 54.25 44.0938 52.3438
L44.0938 75.9844
L53.2656 75.9844
z

M44.0938 13.4219
L44.0938 44.7344
Q40.375 46.3906 37.4375 47.0156
Q34.5156 47.6562 31.0625 47.6562
Q23.3438 47.6562 19.0469 42.2812
Q14.75 36.9219 14.75 27.0469
Q14.75 17.3281 18.0625 12.2812
Q21.3906 7.23438 28.7188 7.23438
Q32.625 7.23438 36.625 8.95312
Q40.625 10.6875 44.0938 13.4219" id="Verdana-64"/>
       <path d="
M55.5156 27.25
Q55.5156 13.9219 48.6719 6.20312
Q41.8438 -1.51562 30.375 -1.51562
Q18.7969 -1.51562 11.9844 6.20312
Q5.17188 13.9219 5.17188 27.25
Q5.17188 40.5781 11.9844 48.3125
Q18.7969 56.0625 30.375 56.0625
Q41.8438 56.0625 48.6719 48.3125
Q55.5156 40.5781 55.5156 27.25
M46.0469 27.25
Q46.0469 37.8438 41.8906 42.9844
Q37.75 48.1406 30.375 48.1406
Q22.9062 48.1406 18.7812 42.9844
Q14.6562 37.8438 14.6562 27.25
Q14.6562 17 18.7969 11.6875
Q22.9531 6.39062 30.375 6.39062
Q37.7031 6.39062 41.875 11.6406
Q46.0469 16.8906 46.0469 27.25" id="Verdana-6f"/>
       <path d="
M88.625 0
L79.4375 0
L79.4375 31.0625
Q79.4375 34.5781 79.125 37.8438
Q78.8125 41.1094 77.7812 43.0625
Q76.6562 45.1719 74.5625 46.2344
Q72.4688 47.3125 68.5 47.3125
Q64.6562 47.3125 60.7969 45.375
Q56.9375 43.4531 53.0781 40.4844
Q53.2188 39.3594 53.3125 37.8594
Q53.4219 36.375 53.4219 34.9062
L53.4219 0
L44.2344 0
L44.2344 31.0625
Q44.2344 34.6719 43.9219 37.9062
Q43.6094 41.1562 42.5781 43.1094
Q41.4531 45.2188 39.3438 46.2656
Q37.25 47.3125 33.2969 47.3125
Q29.5469 47.3125 25.75 45.4531
Q21.9688 43.6094 18.2188 40.7188
L18.2188 0
L9.03125 0
L9.03125 54.5469
L18.2188 54.5469
L18.2188 48.4844
Q22.5156 52.0469 26.7812 54.0469
Q31.0625 56.0625 35.8906 56.0625
Q41.4531 56.0625 45.3281 53.7188
Q49.2188 51.375 51.125 47.2188
Q56.6875 51.9062 61.2812 53.9844
Q65.875 56.0625 71.0938 56.0625
Q80.0781 56.0625 84.3438 50.6094
Q88.625 45.1719 88.625 35.4062
z
" id="Verdana-6d"/>
       <path d="
M54.6406 0
L45.4531 0
L45.4531 31.0625
Q45.4531 34.8125 45.0156 38.1094
Q44.5781 41.4062 43.4062 43.2656
Q42.1875 45.3125 39.8906 46.3125
Q37.5938 47.3125 33.9375 47.3125
Q30.1719 47.3125 26.0625 45.4531
Q21.9688 43.6094 18.2188 40.7188
L18.2188 0
L9.03125 0
L9.03125 54.5469
L18.2188 54.5469
L18.2188 48.4844
Q22.5156 52.0469 27.0938 54.0469
Q31.6875 56.0625 36.5312 56.0625
Q45.3594 56.0625 50 50.7344
Q54.6406 45.4062 54.6406 35.4062
z
" id="Verdana-6e"/>
       <path d="
M42 75.9844
L6.98438 -14.8438
L-1.46875 -14.8438
L33.4062 75.9844
z
" id="Verdana-2f"/>
      </defs>
      <g transform="translate(37.2809566327 381.651266447)scale(0.12 -0.12)">
       <use xlink:href="#Verdana-69"/>
       <use x="27.44140625" xlink:href="#Verdana-6d"/>
       <use x="124.70703125" xlink:href="#Verdana-61"/>
       <use x="184.765625" xlink:href="#Verdana-67"/>
       <use x="247.0703125" xlink:href="#Verdana-65"/>
       <use x="306.640625" xlink:href="#Verdana-72"/>
       <use x="349.31640625" xlink:href="#Verdana-69"/>
       <use x="376.7578125" xlink:href="#Verdana-65"/>
       <use x="436.328125" xlink:href="#Verdana-2f"/>
       <use x="481.73828125" xlink:href="#Verdana-63"/>
       <use x="533.837890625" xlink:href="#Verdana-61"/>
       <use x="593.896484375" xlink:href="#Verdana-72"/>
       <use x="636.572265625" xlink:href="#Verdana-74"/>
       <use x="675.9765625" xlink:href="#Verdana-65"/>
       <use x="735.546875" xlink:href="#Verdana-73"/>
       <use x="787.646484375" xlink:href="#Verdana-20"/>
       <use x="822.802734375" xlink:href="#Verdana-64"/>
       <use x="885.107421875" xlink:href="#Verdana-65"/>
       <use x="944.677734375" xlink:href="#Verdana-20"/>
       <use x="979.833984375" xlink:href="#Verdana-62"/>
       <use x="1042.13867188" xlink:href="#Verdana-61"/>
       <use x="1102.19726562" xlink:href="#Verdana-73"/>
       <use x="1154.296875" xlink:href="#Verdana-65"/>
       <use x="1213.8671875" xlink:href="#Verdana-2f"/>
       <use x="1259.27734375" xlink:href="#Verdana-6f"/>
       <use x="1319.97070312" xlink:href="#Verdana-63"/>
       <use x="1372.0703125" xlink:href="#Verdana-63"/>
       <use x="1424.16992188" xlink:href="#Verdana-75"/>
       <use x="1487.45117188" xlink:href="#Verdana-70"/>
       <use x="1549.75585938" xlink:href="#Verdana-61"/>
       <use x="1609.81445312" xlink:href="#Verdana-74"/>
       <use x="1649.21875" xlink:href="#Verdana-69"/>
       <use x="1676.66015625" xlink:href="#Verdana-6f"/>
       <use x="1737.35351562" xlink:href="#Verdana-6e"/>
       <use x="1800.63476562" xlink:href="#Verdana-20"/>
       <use x="1835.79101562" xlink:href="#Verdana-64"/>
       <use x="1898.09570312" xlink:href="#Verdana-65"/>
       <use x="1957.66601562" xlink:href="#Verdana-73"/>
       <use x="2009.765625" xlink:href="#Verdana-20"/>
       <use x="2044.921875" xlink:href="#Verdana-74"/>
       <use x="2084.32617188" xlink:href="#Verdana-65"/>
       <use x="2143.89648438" xlink:href="#Verdana-72"/>
       <use x="2186.57226562" xlink:href="#Verdana-72"/>
       <use x="2229.24804688" xlink:href="#Verdana-65"/>
       <use x="2288.81835938" xlink:href="#Verdana-73"/>
      </g>
     </g>
    </g>
    <g id="ytick_2">
     <g id="text_9">
      <!-- informations géoscientifiques -->
      <defs>
       <path d="
M53.2656 -20.125
L44.0938 -20.125
L44.0938 6.15625
Q39.8438 2.48438 35.6406 0.703125
Q31.4531 -1.07812 26.5625 -1.07812
Q16.8438 -1.07812 11.0625 6.42188
Q5.28125 13.9219 5.28125 27.0938
Q5.28125 34.125 7.29688 39.5156
Q9.32812 44.9219 12.6406 48.5781
Q15.875 52.1562 20.2188 54.1094
Q24.5625 56.0625 29.3906 56.0625
Q33.7969 56.0625 37.1875 55.0781
Q40.5781 54.1094 44.0938 52.2031
L44.6719 54.5469
L53.2656 54.5469
z

M44.0938 13.875
L44.0938 44.7344
Q40.2812 46.4375 37.3438 47.1094
Q34.4219 47.7969 31 47.7969
Q23.0469 47.7969 18.8906 42.4062
Q14.75 37.0156 14.75 27.5469
Q14.75 17.9688 18.0938 12.8125
Q21.4375 7.67188 28.6094 7.67188
Q32.625 7.67188 36.625 9.40625
Q40.625 11.1406 44.0938 13.875" id="Verdana-71"/>
       <path d="
M54.6875 26.3125
L14.5 26.3125
Q14.5 21.2969 16.0156 17.5469
Q17.5312 13.8125 20.1719 11.4219
Q22.7031 9.07812 26.1875 7.90625
Q29.6875 6.73438 33.8906 6.73438
Q39.4531 6.73438 45.0938 8.95312
Q50.7344 11.1875 53.125 13.3281
L53.6094 13.3281
L53.6094 3.32812
Q48.9688 1.375 44.1406 0.046875
Q39.3125 -1.26562 33.9844 -1.26562
Q20.4062 -1.26562 12.7812 6.07812
Q5.17188 13.4219 5.17188 26.9531
Q5.17188 40.3281 12.4688 48.1875
Q19.7812 56.0625 31.6875 56.0625
Q42.7188 56.0625 48.7031 49.6094
Q54.6875 43.1719 54.6875 31.2969
z

M45.75 33.3438
Q45.7031 40.5781 42.1094 44.5312
Q38.5312 48.4844 31.2031 48.4844
Q23.8281 48.4844 19.4531 44.1406
Q15.0938 39.7969 14.5 33.3438
z

M46.8906 81.8438
L33.5625 63.5781
L26.2969 63.5781
L35.0312 81.8438
z
" id="Verdana-e9"/>
      </defs>
      <g transform="translate(141.988456633 363.434407895)scale(0.12 -0.12)">
       <use xlink:href="#Verdana-69"/>
       <use x="27.44140625" xlink:href="#Verdana-6e"/>
       <use x="90.72265625" xlink:href="#Verdana-66"/>
       <use x="125.87890625" xlink:href="#Verdana-6f"/>
       <use x="186.572265625" xlink:href="#Verdana-72"/>
       <use x="229.248046875" xlink:href="#Verdana-6d"/>
       <use x="326.513671875" xlink:href="#Verdana-61"/>
       <use x="386.572265625" xlink:href="#Verdana-74"/>
       <use x="425.9765625" xlink:href="#Verdana-69"/>
       <use x="453.41796875" xlink:href="#Verdana-6f"/>
       <use x="514.111328125" xlink:href="#Verdana-6e"/>
       <use x="577.392578125" xlink:href="#Verdana-73"/>
       <use x="629.4921875" xlink:href="#Verdana-20"/>
       <use x="664.6484375" xlink:href="#Verdana-67"/>
       <use x="726.953125" xlink:href="#Verdana-e9"/>
       <use x="786.5234375" xlink:href="#Verdana-6f"/>
       <use x="847.216796875" xlink:href="#Verdana-73"/>
       <use x="899.31640625" xlink:href="#Verdana-63"/>
       <use x="951.416015625" xlink:href="#Verdana-69"/>
       <use x="978.857421875" xlink:href="#Verdana-65"/>
       <use x="1038.42773438" xlink:href="#Verdana-6e"/>
       <use x="1101.70898438" xlink:href="#Verdana-74"/>
       <use x="1141.11328125" xlink:href="#Verdana-69"/>
       <use x="1168.5546875" xlink:href="#Verdana-66"/>
       <use x="1203.7109375" xlink:href="#Verdana-69"/>
       <use x="1231.15234375" xlink:href="#Verdana-71"/>
       <use x="1293.45703125" xlink:href="#Verdana-75"/>
       <use x="1356.73828125" xlink:href="#Verdana-65"/>
       <use x="1416.30859375" xlink:href="#Verdana-73"/>
      </g>
     </g>
    </g>
    <g id="ytick_3">
     <g id="text_10">
      <!-- societé -->
      <g transform="translate(276.830956633 344.546299342)scale(0.12 -0.12)">
       <use xlink:href="#Verdana-73"/>
       <use x="52.099609375" xlink:href="#Verdana-6f"/>
       <use x="112.79296875" xlink:href="#Verdana-63"/>
       <use x="164.892578125" xlink:href="#Verdana-69"/>
       <use x="192.333984375" xlink:href="#Verdana-65"/>
       <use x="251.904296875" xlink:href="#Verdana-74"/>
       <use x="291.30859375" xlink:href="#Verdana-e9"/>
      </g>
     </g>
    </g>
    <g id="ytick_4">
     <g id="text_11">
      <!-- environnement -->
      <defs>
       <path d="
M56.2031 54.5469
L34.125 0
L24.9062 0
L2.98438 54.5469
L12.9375 54.5469
L29.8281 11.1406
L46.5781 54.5469
z
" id="Verdana-76"/>
      </defs>
      <g transform="translate(227.668456633 325.977878289)scale(0.12 -0.12)">
       <use xlink:href="#Verdana-65"/>
       <use x="59.5703125" xlink:href="#Verdana-6e"/>
       <use x="121.8515625" xlink:href="#Verdana-76"/>
       <use x="181.03125" xlink:href="#Verdana-69"/>
       <use x="208.47265625" xlink:href="#Verdana-72"/>
       <use x="251.1484375" xlink:href="#Verdana-6f"/>
       <use x="311.841796875" xlink:href="#Verdana-6e"/>
       <use x="375.123046875" xlink:href="#Verdana-6e"/>
       <use x="438.404296875" xlink:href="#Verdana-65"/>
       <use x="497.974609375" xlink:href="#Verdana-6d"/>
       <use x="595.240234375" xlink:href="#Verdana-65"/>
       <use x="654.810546875" xlink:href="#Verdana-6e"/>
       <use x="718.091796875" xlink:href="#Verdana-74"/>
      </g>
     </g>
    </g>
    <g id="ytick_5">
     <g id="text_12">
      <!-- planification/cadastre -->
      <defs>
       <path d="
M18.3125 0
L9.125 0
L9.125 75.9844
L18.3125 75.9844
z
" id="Verdana-6c"/>
      </defs>
      <g transform="translate(189.800956633 307.438519737)scale(0.12 -0.12)">
       <use xlink:href="#Verdana-70"/>
       <use x="62.3046875" xlink:href="#Verdana-6c"/>
       <use x="89.74609375" xlink:href="#Verdana-61"/>
       <use x="149.8046875" xlink:href="#Verdana-6e"/>
       <use x="213.0859375" xlink:href="#Verdana-69"/>
       <use x="240.52734375" xlink:href="#Verdana-66"/>
       <use x="275.68359375" xlink:href="#Verdana-69"/>
       <use x="303.125" xlink:href="#Verdana-63"/>
       <use x="355.224609375" xlink:href="#Verdana-61"/>
       <use x="415.283203125" xlink:href="#Verdana-74"/>
       <use x="454.6875" xlink:href="#Verdana-69"/>
       <use x="482.12890625" xlink:href="#Verdana-6f"/>
       <use x="542.822265625" xlink:href="#Verdana-6e"/>
       <use x="606.103515625" xlink:href="#Verdana-2f"/>
       <use x="651.513671875" xlink:href="#Verdana-63"/>
       <use x="703.61328125" xlink:href="#Verdana-61"/>
       <use x="763.671875" xlink:href="#Verdana-64"/>
       <use x="825.9765625" xlink:href="#Verdana-61"/>
       <use x="886.03515625" xlink:href="#Verdana-73"/>
       <use x="938.134765625" xlink:href="#Verdana-74"/>
       <use x="977.5390625" xlink:href="#Verdana-72"/>
       <use x="1020.21484375" xlink:href="#Verdana-65"/>
      </g>
     </g>
    </g>
    <g id="ytick_6">
     <g id="text_13">
      <!-- biote -->
      <g transform="translate(289.444081633 288.841036184)scale(0.12 -0.12)">
       <use xlink:href="#Verdana-62"/>
       <use x="62.3046875" xlink:href="#Verdana-69"/>
       <use x="89.74609375" xlink:href="#Verdana-6f"/>
       <use x="150.439453125" xlink:href="#Verdana-74"/>
       <use x="189.84375" xlink:href="#Verdana-65"/>
      </g>
     </g>
    </g>
    <g id="ytick_7">
     <g id="text_14">
      <!-- limites -->
      <g transform="translate(279.611581633 270.272615132)scale(0.12 -0.12)">
       <use xlink:href="#Verdana-6c"/>
       <use x="27.44140625" xlink:href="#Verdana-69"/>
       <use x="54.8828125" xlink:href="#Verdana-6d"/>
       <use x="152.1484375" xlink:href="#Verdana-69"/>
       <use x="179.58984375" xlink:href="#Verdana-74"/>
       <use x="218.994140625" xlink:href="#Verdana-65"/>
       <use x="278.564453125" xlink:href="#Verdana-73"/>
      </g>
     </g>
    </g>
    <g id="ytick_8">
     <g id="text_15">
      <!-- localisation -->
      <g transform="translate(252.860956633 251.704194079)scale(0.12 -0.12)">
       <use xlink:href="#Verdana-6c"/>
       <use x="27.44140625" xlink:href="#Verdana-6f"/>
       <use x="88.134765625" xlink:href="#Verdana-63"/>
       <use x="140.234375" xlink:href="#Verdana-61"/>
       <use x="200.29296875" xlink:href="#Verdana-6c"/>
       <use x="227.734375" xlink:href="#Verdana-69"/>
       <use x="255.17578125" xlink:href="#Verdana-73"/>
       <use x="307.275390625" xlink:href="#Verdana-61"/>
       <use x="367.333984375" xlink:href="#Verdana-74"/>
       <use x="406.73828125" xlink:href="#Verdana-69"/>
       <use x="434.1796875" xlink:href="#Verdana-6f"/>
       <use x="494.873046875" xlink:href="#Verdana-6e"/>
      </g>
     </g>
    </g>
    <g id="ytick_9">
     <g id="text_16">
      <!-- transport -->
      <g transform="translate(263.012206633 233.135773026)scale(0.12 -0.12)">
       <use xlink:href="#Verdana-74"/>
       <use x="39.404296875" xlink:href="#Verdana-72"/>
       <use x="80.330078125" xlink:href="#Verdana-61"/>
       <use x="140.388671875" xlink:href="#Verdana-6e"/>
       <use x="203.669921875" xlink:href="#Verdana-73"/>
       <use x="255.76953125" xlink:href="#Verdana-70"/>
       <use x="318.07421875" xlink:href="#Verdana-6f"/>
       <use x="378.767578125" xlink:href="#Verdana-72"/>
       <use x="421.443359375" xlink:href="#Verdana-74"/>
      </g>
     </g>
    </g>
    <g id="ytick_10">
     <g id="text_17">
      <!-- eaux intérieures -->
      <defs>
       <path d="
M56.25 0
L44.6719 0
L29.2031 20.9531
L13.625 0
L2.9375 0
L24.2188 27.2031
L3.125 54.5469
L14.7031 54.5469
L30.0781 33.9375
L45.5156 54.5469
L56.25 54.5469
L34.8125 27.6875
z
" id="Verdana-78"/>
      </defs>
      <g transform="translate(220.481581633 214.567351974)scale(0.12 -0.12)">
       <use xlink:href="#Verdana-65"/>
       <use x="59.5703125" xlink:href="#Verdana-61"/>
       <use x="119.62890625" xlink:href="#Verdana-75"/>
       <use x="182.91015625" xlink:href="#Verdana-78"/>
       <use x="242.08984375" xlink:href="#Verdana-20"/>
       <use x="277.24609375" xlink:href="#Verdana-69"/>
       <use x="304.6875" xlink:href="#Verdana-6e"/>
       <use x="367.96875" xlink:href="#Verdana-74"/>
       <use x="407.373046875" xlink:href="#Verdana-e9"/>
       <use x="466.943359375" xlink:href="#Verdana-72"/>
       <use x="509.619140625" xlink:href="#Verdana-69"/>
       <use x="537.060546875" xlink:href="#Verdana-65"/>
       <use x="596.630859375" xlink:href="#Verdana-75"/>
       <use x="659.912109375" xlink:href="#Verdana-72"/>
       <use x="702.587890625" xlink:href="#Verdana-65"/>
       <use x="762.158203125" xlink:href="#Verdana-73"/>
      </g>
     </g>
    </g>
    <g id="ytick_11">
     <g id="text_18">
      <!-- santé -->
      <g transform="translate(286.005331633 195.998930921)scale(0.12 -0.12)">
       <use xlink:href="#Verdana-73"/>
       <use x="52.099609375" xlink:href="#Verdana-61"/>
       <use x="112.158203125" xlink:href="#Verdana-6e"/>
       <use x="175.439453125" xlink:href="#Verdana-74"/>
       <use x="214.84375" xlink:href="#Verdana-e9"/>
      </g>
     </g>
    </g>
    <g id="ytick_12">
     <g id="text_19">
      <!-- agriculture -->
      <g transform="translate(254.072206633 177.398634868)scale(0.12 -0.12)">
       <use xlink:href="#Verdana-61"/>
       <use x="60.05859375" xlink:href="#Verdana-67"/>
       <use x="122.36328125" xlink:href="#Verdana-72"/>
       <use x="165.0390625" xlink:href="#Verdana-69"/>
       <use x="192.48046875" xlink:href="#Verdana-63"/>
       <use x="244.580078125" xlink:href="#Verdana-75"/>
       <use x="307.861328125" xlink:href="#Verdana-6c"/>
       <use x="335.302734375" xlink:href="#Verdana-74"/>
       <use x="374.70703125" xlink:href="#Verdana-75"/>
       <use x="437.98828125" xlink:href="#Verdana-72"/>
       <use x="480.6640625" xlink:href="#Verdana-65"/>
      </g>
     </g>
    </g>
    <g id="ytick_13">
     <g id="text_20">
      <!-- services d'utilité publique/communication -->
      <defs>
       <path d="
M18.8438 75.9844
L16.75 47.7031
L10.1094 47.7031
L8.01562 75.9844
z
" id="Verdana-27"/>
      </defs>
      <g transform="translate(68.4397066327 159.213651316)scale(0.12 -0.12)">
       <use xlink:href="#Verdana-73"/>
       <use x="52.099609375" xlink:href="#Verdana-65"/>
       <use x="111.669921875" xlink:href="#Verdana-72"/>
       <use x="154.345703125" xlink:href="#Verdana-76"/>
       <use x="213.525390625" xlink:href="#Verdana-69"/>
       <use x="240.966796875" xlink:href="#Verdana-63"/>
       <use x="293.06640625" xlink:href="#Verdana-65"/>
       <use x="352.63671875" xlink:href="#Verdana-73"/>
       <use x="404.736328125" xlink:href="#Verdana-20"/>
       <use x="439.892578125" xlink:href="#Verdana-64"/>
       <use x="502.197265625" xlink:href="#Verdana-27"/>
       <use x="529.052734375" xlink:href="#Verdana-75"/>
       <use x="592.333984375" xlink:href="#Verdana-74"/>
       <use x="631.73828125" xlink:href="#Verdana-69"/>
       <use x="659.1796875" xlink:href="#Verdana-6c"/>
       <use x="686.62109375" xlink:href="#Verdana-69"/>
       <use x="714.0625" xlink:href="#Verdana-74"/>
       <use x="753.466796875" xlink:href="#Verdana-e9"/>
       <use x="813.037109375" xlink:href="#Verdana-20"/>
       <use x="848.193359375" xlink:href="#Verdana-70"/>
       <use x="910.498046875" xlink:href="#Verdana-75"/>
       <use x="973.779296875" xlink:href="#Verdana-62"/>
       <use x="1036.08398438" xlink:href="#Verdana-6c"/>
       <use x="1063.52539062" xlink:href="#Verdana-69"/>
       <use x="1090.96679688" xlink:href="#Verdana-71"/>
       <use x="1153.27148438" xlink:href="#Verdana-75"/>
       <use x="1216.55273438" xlink:href="#Verdana-65"/>
       <use x="1276.12304688" xlink:href="#Verdana-2f"/>
       <use x="1321.53320312" xlink:href="#Verdana-63"/>
       <use x="1373.6328125" xlink:href="#Verdana-6f"/>
       <use x="1434.32617188" xlink:href="#Verdana-6d"/>
       <use x="1531.59179688" xlink:href="#Verdana-6d"/>
       <use x="1628.85742188" xlink:href="#Verdana-75"/>
       <use x="1692.13867188" xlink:href="#Verdana-6e"/>
       <use x="1755.41992188" xlink:href="#Verdana-69"/>
       <use x="1782.86132812" xlink:href="#Verdana-63"/>
       <use x="1834.9609375" xlink:href="#Verdana-61"/>
       <use x="1895.01953125" xlink:href="#Verdana-74"/>
       <use x="1934.42382812" xlink:href="#Verdana-69"/>
       <use x="1961.86523438" xlink:href="#Verdana-6f"/>
       <use x="2022.55859375" xlink:href="#Verdana-6e"/>
      </g>
     </g>
    </g>
    <g id="ytick_14">
     <g id="text_21">
      <!-- structure -->
      <g transform="translate(264.397831633 140.293667763)scale(0.12 -0.12)">
       <use xlink:href="#Verdana-73"/>
       <use x="52.099609375" xlink:href="#Verdana-74"/>
       <use x="91.50390625" xlink:href="#Verdana-72"/>
       <use x="134.1796875" xlink:href="#Verdana-75"/>
       <use x="197.4609375" xlink:href="#Verdana-63"/>
       <use x="249.560546875" xlink:href="#Verdana-74"/>
       <use x="288.96484375" xlink:href="#Verdana-75"/>
       <use x="352.24609375" xlink:href="#Verdana-72"/>
       <use x="394.921875" xlink:href="#Verdana-65"/>
      </g>
     </g>
    </g>
    <g id="ytick_15">
     <g id="text_22">
      <!-- altitude -->
      <g transform="translate(273.429706633 121.725246711)scale(0.12 -0.12)">
       <use xlink:href="#Verdana-61"/>
       <use x="60.05859375" xlink:href="#Verdana-6c"/>
       <use x="87.5" xlink:href="#Verdana-74"/>
       <use x="126.904296875" xlink:href="#Verdana-69"/>
       <use x="154.345703125" xlink:href="#Verdana-74"/>
       <use x="193.75" xlink:href="#Verdana-75"/>
       <use x="257.03125" xlink:href="#Verdana-64"/>
       <use x="319.3359375" xlink:href="#Verdana-65"/>
      </g>
     </g>
    </g>
    <g id="ytick_16">
     <g id="text_23">
      <!-- économie -->
      <g transform="translate(261.238456633 103.156825658)scale(0.12 -0.12)">
       <use xlink:href="#Verdana-e9"/>
       <use x="59.5703125" xlink:href="#Verdana-63"/>
       <use x="111.669921875" xlink:href="#Verdana-6f"/>
       <use x="172.36328125" xlink:href="#Verdana-6e"/>
       <use x="235.64453125" xlink:href="#Verdana-6f"/>
       <use x="296.337890625" xlink:href="#Verdana-6d"/>
       <use x="393.603515625" xlink:href="#Verdana-69"/>
       <use x="421.044921875" xlink:href="#Verdana-65"/>
      </g>
     </g>
    </g>
    <g id="ytick_17">
     <g id="text_24">
      <!-- océans -->
      <g transform="translate(277.080331633 84.5884046053)scale(0.12 -0.12)">
       <use xlink:href="#Verdana-6f"/>
       <use x="60.693359375" xlink:href="#Verdana-63"/>
       <use x="112.79296875" xlink:href="#Verdana-e9"/>
       <use x="172.36328125" xlink:href="#Verdana-61"/>
       <use x="232.421875" xlink:href="#Verdana-6e"/>
       <use x="295.703125" xlink:href="#Verdana-73"/>
      </g>
     </g>
    </g>
    <g id="ytick_18">
     <g id="text_25">
      <!-- renseignement/secteur militaire -->
      <g transform="translate(125.409706633 65.9881085526)scale(0.12 -0.12)">
       <use xlink:href="#Verdana-72"/>
       <use x="42.67578125" xlink:href="#Verdana-65"/>
       <use x="102.24609375" xlink:href="#Verdana-6e"/>
       <use x="165.52734375" xlink:href="#Verdana-73"/>
       <use x="217.626953125" xlink:href="#Verdana-65"/>
       <use x="277.197265625" xlink:href="#Verdana-69"/>
       <use x="304.638671875" xlink:href="#Verdana-67"/>
       <use x="366.943359375" xlink:href="#Verdana-6e"/>
       <use x="430.224609375" xlink:href="#Verdana-65"/>
       <use x="489.794921875" xlink:href="#Verdana-6d"/>
       <use x="587.060546875" xlink:href="#Verdana-65"/>
       <use x="646.630859375" xlink:href="#Verdana-6e"/>
       <use x="709.912109375" xlink:href="#Verdana-74"/>
       <use x="749.31640625" xlink:href="#Verdana-2f"/>
       <use x="794.7265625" xlink:href="#Verdana-73"/>
       <use x="846.826171875" xlink:href="#Verdana-65"/>
       <use x="906.396484375" xlink:href="#Verdana-63"/>
       <use x="958.49609375" xlink:href="#Verdana-74"/>
       <use x="997.900390625" xlink:href="#Verdana-65"/>
       <use x="1057.47070312" xlink:href="#Verdana-75"/>
       <use x="1120.75195312" xlink:href="#Verdana-72"/>
       <use x="1163.42773438" xlink:href="#Verdana-20"/>
       <use x="1198.58398438" xlink:href="#Verdana-6d"/>
       <use x="1295.84960938" xlink:href="#Verdana-69"/>
       <use x="1323.29101562" xlink:href="#Verdana-6c"/>
       <use x="1350.73242188" xlink:href="#Verdana-69"/>
       <use x="1378.17382812" xlink:href="#Verdana-74"/>
       <use x="1417.578125" xlink:href="#Verdana-61"/>
       <use x="1477.63671875" xlink:href="#Verdana-69"/>
       <use x="1505.078125" xlink:href="#Verdana-72"/>
       <use x="1547.75390625" xlink:href="#Verdana-65"/>
      </g>
     </g>
    </g>
    <g id="ytick_19">
     <g id="text_26">
      <!-- climatologie/météorologie/atmosphère -->
      <defs>
       <path d="
M54.6875 26.3125
L14.5 26.3125
Q14.5 21.2969 16.0156 17.5469
Q17.5312 13.8125 20.1719 11.4219
Q22.7031 9.07812 26.1875 7.90625
Q29.6875 6.73438 33.8906 6.73438
Q39.4531 6.73438 45.0938 8.95312
Q50.7344 11.1875 53.125 13.3281
L53.6094 13.3281
L53.6094 3.32812
Q48.9688 1.375 44.1406 0.046875
Q39.3125 -1.26562 33.9844 -1.26562
Q20.4062 -1.26562 12.7812 6.07812
Q5.17188 13.4219 5.17188 26.9531
Q5.17188 40.3281 12.4688 48.1875
Q19.7812 56.0625 31.6875 56.0625
Q42.7188 56.0625 48.7031 49.6094
Q54.6875 43.1719 54.6875 31.2969
z

M45.75 33.3438
Q45.7031 40.5781 42.1094 44.5312
Q38.5312 48.4844 31.2031 48.4844
Q23.8281 48.4844 19.4531 44.1406
Q15.0938 39.7969 14.5 33.3438
z

M37.0781 63.5781
L29.8125 63.5781
L16.4844 81.8438
L28.3438 81.8438
z
" id="Verdana-e8"/>
      </defs>
      <g transform="translate(85.2753316327 47.77125)scale(0.12 -0.12)">
       <use xlink:href="#Verdana-63"/>
       <use x="52.099609375" xlink:href="#Verdana-6c"/>
       <use x="79.541015625" xlink:href="#Verdana-69"/>
       <use x="106.982421875" xlink:href="#Verdana-6d"/>
       <use x="204.248046875" xlink:href="#Verdana-61"/>
       <use x="264.306640625" xlink:href="#Verdana-74"/>
       <use x="303.7109375" xlink:href="#Verdana-6f"/>
       <use x="364.404296875" xlink:href="#Verdana-6c"/>
       <use x="391.845703125" xlink:href="#Verdana-6f"/>
       <use x="452.5390625" xlink:href="#Verdana-67"/>
       <use x="514.84375" xlink:href="#Verdana-69"/>
       <use x="542.28515625" xlink:href="#Verdana-65"/>
       <use x="601.85546875" xlink:href="#Verdana-2f"/>
       <use x="647.265625" xlink:href="#Verdana-6d"/>
       <use x="744.53125" xlink:href="#Verdana-e9"/>
       <use x="804.1015625" xlink:href="#Verdana-74"/>
       <use x="843.505859375" xlink:href="#Verdana-e9"/>
       <use x="903.076171875" xlink:href="#Verdana-6f"/>
       <use x="963.76953125" xlink:href="#Verdana-72"/>
       <use x="1006.4453125" xlink:href="#Verdana-6f"/>
       <use x="1067.13867188" xlink:href="#Verdana-6c"/>
       <use x="1094.58007812" xlink:href="#Verdana-6f"/>
       <use x="1155.2734375" xlink:href="#Verdana-67"/>
       <use x="1217.578125" xlink:href="#Verdana-69"/>
       <use x="1245.01953125" xlink:href="#Verdana-65"/>
       <use x="1304.58984375" xlink:href="#Verdana-2f"/>
       <use x="1350.0" xlink:href="#Verdana-61"/>
       <use x="1410.05859375" xlink:href="#Verdana-74"/>
       <use x="1449.46289062" xlink:href="#Verdana-6d"/>
       <use x="1546.72851562" xlink:href="#Verdana-6f"/>
       <use x="1607.421875" xlink:href="#Verdana-73"/>
       <use x="1659.52148438" xlink:href="#Verdana-70"/>
       <use x="1721.82617188" xlink:href="#Verdana-68"/>
       <use x="1785.10742188" xlink:href="#Verdana-e8"/>
       <use x="1844.67773438" xlink:href="#Verdana-72"/>
       <use x="1887.35351562" xlink:href="#Verdana-65"/>
      </g>
     </g>
    </g>
    <g id="text_27">
     <!-- Categories ISO 19115 -->
     <defs>
      <path d="
M56.9844 40.7188
Q56.9844 31.2031 54.8125 23.4375
Q52.6406 15.6719 48.25 10.2031
Q43.7969 4.64062 37.1094 1.60938
Q30.4219 -1.42188 21.3906 -1.42188
Q18.8438 -1.42188 16.5938 -1.14062
Q14.3594 -0.875 12.5938 -0.296875
L12.5938 9.03125
L13.0938 9.03125
Q14.5 8.29688 17.0781 7.64062
Q19.6719 6.98438 22.8594 6.98438
Q33.6406 6.98438 39.7656 13.4531
Q45.9062 19.9219 46.875 31.2969
Q42.3281 28.5625 38.3281 27.3906
Q34.3281 26.2188 29.5938 26.2188
Q25.0938 26.2188 21.4531 27.0938
Q17.8281 27.9844 14.1562 30.5156
Q9.85938 33.5 7.6875 38.0781
Q5.51562 42.6719 5.51562 49.0781
Q5.51562 60.2031 12.8438 67.1875
Q20.1719 74.1719 30.7188 74.1719
Q35.9844 74.1719 40.4688 72.5312
Q44.9688 70.9062 48.3438 67.625
Q52.4844 63.5781 54.7344 57.2031
Q56.9844 50.8281 56.9844 40.7188
M47.125 42.8281
Q47.125 50.3906 45.5625 54.9844
Q44 59.5781 41.2656 62.1094
Q38.9688 64.3125 36.3281 65.2656
Q33.6875 66.2188 30.6094 66.2188
Q23.5781 66.2188 19.5 61.8125
Q15.4375 57.4219 15.4375 49.4688
Q15.4375 44.8281 16.75 41.8906
Q18.0625 38.9688 21.1875 36.7656
Q23.3906 35.25 26.0156 34.7344
Q28.6562 34.2344 31.8906 34.2344
Q35.6875 34.2344 39.5938 35.25
Q43.5 36.2812 46.9219 38.2344
Q46.9688 39.2656 47.0469 40.2656
Q47.125 41.2656 47.125 42.8281" id="Verdana-39"/>
      <path d="
M56.5 23.0938
Q56.5 18.0156 54.6406 13.375
Q52.7812 8.73438 49.5625 5.5625
Q46.0469 2.15625 41.1875 0.3125
Q36.3281 -1.51562 29.9375 -1.51562
Q23.9688 -1.51562 18.4531 -0.265625
Q12.9375 0.984375 9.125 2.73438
L9.125 13.0312
L9.8125 13.0312
Q13.8125 10.5 19.1875 8.71875
Q24.5625 6.9375 29.7344 6.9375
Q33.2031 6.9375 36.4531 7.90625
Q39.7031 8.89062 42.2344 11.3281
Q44.3906 13.4219 45.4844 16.3438
Q46.5781 19.2812 46.5781 23.1406
Q46.5781 26.9062 45.2812 29.4844
Q44 32.0781 41.7031 33.6406
Q39.1562 35.5 35.5156 36.25
Q31.8906 37.0156 27.3906 37.0156
Q23.0938 37.0156 19.1094 36.4219
Q15.1406 35.8438 12.25 35.25
L12.25 72.7031
L56 72.7031
L56 64.1562
L21.6875 64.1562
L21.6875 44.8281
Q23.7812 45.0156 25.9688 45.1094
Q28.1719 45.2188 29.7812 45.2188
Q35.6875 45.2188 40.125 44.2188
Q44.5781 43.2188 48.2969 40.6719
Q52.2031 37.9844 54.3438 33.7344
Q56.5 29.5 56.5 23.0938" id="Verdana-35"/>
      <path d="
M63.9688 64.3594
Q68.4062 59.4688 70.7656 52.3906
Q73.1406 45.3125 73.1406 36.3281
Q73.1406 27.3438 70.7188 20.2344
Q68.3125 13.1406 63.9688 8.40625
Q59.4688 3.46875 53.3438 0.96875
Q47.2188 -1.51562 39.3594 -1.51562
Q31.6875 -1.51562 25.4062 1.01562
Q19.1406 3.5625 14.75 8.40625
Q10.3594 13.2344 7.98438 20.2656
Q5.60938 27.2969 5.60938 36.3281
Q5.60938 45.2188 7.95312 52.2656
Q10.2969 59.3281 14.7969 64.3594
Q19.0938 69.1406 25.4688 71.6719
Q31.8438 74.2188 39.3594 74.2188
Q47.1719 74.2188 53.3906 71.6562
Q59.625 69.0938 63.9688 64.3594
M63.0938 36.3281
Q63.0938 50.4844 56.7344 58.1719
Q50.3906 65.875 39.4062 65.875
Q28.3281 65.875 22 58.1719
Q15.6719 50.4844 15.6719 36.3281
Q15.6719 22.0156 22.1094 14.4219
Q28.5625 6.84375 39.4062 6.84375
Q50.25 6.84375 56.6719 14.4219
Q63.0938 22.0156 63.0938 36.3281" id="Verdana-4f"/>
      <path d="
M35.4062 0
L6.6875 0
L6.6875 7.42188
L16.2188 7.42188
L16.2188 65.2812
L6.6875 65.2812
L6.6875 72.7031
L35.4062 72.7031
L35.4062 65.2812
L25.875 65.2812
L25.875 7.42188
L35.4062 7.42188
z
" id="Verdana-49"/>
      <path d="
M65.9219 5.28125
Q63.2344 4.10938 61.0625 3.07812
Q58.8906 2.04688 55.375 0.921875
Q52.3906 0 48.8906 -0.65625
Q45.4062 -1.3125 41.2188 -1.3125
Q33.2969 -1.3125 26.8281 0.90625
Q20.3594 3.125 15.5781 7.85938
Q10.8906 12.5 8.25 19.6562
Q5.60938 26.8125 5.60938 36.2812
Q5.60938 45.2656 8.14062 52.3438
Q10.6875 59.4219 15.4844 64.3125
Q20.125 69.0469 26.6875 71.5312
Q33.25 74.0312 41.2656 74.0312
Q47.125 74.0312 52.9531 72.6094
Q58.7969 71.1875 65.9219 67.625
L65.9219 56.1562
L65.1875 56.1562
Q59.1875 61.1875 53.2656 63.4688
Q47.3594 65.7656 40.625 65.7656
Q35.1094 65.7656 30.6875 63.9844
Q26.2656 62.2031 22.7969 58.4531
Q19.4375 54.7812 17.5469 49.1875
Q15.6719 43.6094 15.6719 36.2812
Q15.6719 28.6094 17.75 23.0938
Q19.8281 17.5781 23.0938 14.1094
Q26.5156 10.5 31.0781 8.76562
Q35.6406 7.03125 40.7188 7.03125
Q47.7031 7.03125 53.7969 9.42188
Q59.9062 11.8125 65.2344 16.6094
L65.9219 16.6094
z
" id="Verdana-43"/>
      <path d="
M62.5938 20.75
Q62.5938 16.5 60.6094 12.3438
Q58.6406 8.20312 55.0781 5.32812
Q51.1719 2.20312 45.9688 0.4375
Q40.7656 -1.3125 33.4531 -1.3125
Q25.5938 -1.3125 19.3125 0.140625
Q13.0312 1.60938 6.54688 4.5
L6.54688 16.6094
L7.23438 16.6094
Q12.75 12.0156 19.9688 9.51562
Q27.2031 7.03125 33.5469 7.03125
Q42.5312 7.03125 47.5312 10.3906
Q52.5469 13.7656 52.5469 19.3906
Q52.5469 24.2188 50.1719 26.5156
Q47.7969 28.8125 42.9688 30.0781
Q39.3125 31.0625 35.0312 31.6875
Q30.7656 32.3281 25.9844 33.2969
Q16.3125 35.3594 11.6406 40.3125
Q6.98438 45.2656 6.98438 53.2188
Q6.98438 62.3594 14.6875 68.1875
Q22.4062 74.0312 34.2812 74.0312
Q41.9375 74.0312 48.3281 72.5625
Q54.7344 71.0938 59.6719 68.9531
L59.6719 57.5156
L58.9844 57.5156
Q54.8281 61.0312 48.0625 63.3438
Q41.3125 65.6719 34.2344 65.6719
Q26.4688 65.6719 21.75 62.4531
Q17.0469 59.2344 17.0469 54.1562
Q17.0469 49.6094 19.3906 47.0156
Q21.7344 44.4375 27.6406 43.0625
Q30.7656 42.3906 36.5156 41.4062
Q42.2812 40.4375 46.2969 39.4062
Q54.3906 37.25 58.4844 32.9062
Q62.5938 28.5625 62.5938 20.75" id="Verdana-53"/>
     </defs>
     <g transform="translate(29.8022066327 286.7371875)rotate(-90.0)scale(0.12 -0.12)">
      <use xlink:href="#Verdana-43"/>
      <use x="69.82421875" xlink:href="#Verdana-61"/>
      <use x="129.8828125" xlink:href="#Verdana-74"/>
      <use x="169.287109375" xlink:href="#Verdana-65"/>
      <use x="228.857421875" xlink:href="#Verdana-67"/>
      <use x="291.162109375" xlink:href="#Verdana-6f"/>
      <use x="351.85546875" xlink:href="#Verdana-72"/>
      <use x="394.53125" xlink:href="#Verdana-69"/>
      <use x="421.97265625" xlink:href="#Verdana-65"/>
      <use x="481.54296875" xlink:href="#Verdana-73"/>
      <use x="533.642578125" xlink:href="#Verdana-20"/>
      <use x="568.798828125" xlink:href="#Verdana-49"/>
      <use x="610.888671875" xlink:href="#Verdana-53"/>
      <use x="679.248046875" xlink:href="#Verdana-4f"/>
      <use x="757.958984375" xlink:href="#Verdana-20"/>
      <use x="793.115234375" xlink:href="#Verdana-31"/>
      <use x="856.689453125" xlink:href="#Verdana-39"/>
      <use x="920.263671875" xlink:href="#Verdana-31"/>
      <use x="983.837890625" xlink:href="#Verdana-31"/>
      <use x="1047.41210938" xlink:href="#Verdana-35"/>
     </g>
    </g>
   </g>
   <g id="patch_22">
    <path d="
M321.704 44.1
L878.85 44.1" style="fill:none;stroke:#000000;"/>
   </g>
   <g id="patch_23">
    <path d="
M878.85 396.9
L878.85 44.1" style="fill:none;stroke:#000000;"/>
   </g>
   <g id="patch_24">
    <path d="
M321.704 396.9
L878.85 396.9" style="fill:none;stroke:#000000;"/>
   </g>
   <g id="patch_25">
    <path d="
M321.704 396.9
L321.704 44.1" style="fill:none;stroke:#000000;"/>
   </g>
   <g id="legend_1">
    <g id="patch_26">
     <path d="
M783.562 68.0017
L812.362 68.0017
L812.362 57.9217
L783.562 57.9217
z
" style="fill:#0000ff;stroke:#000000;"/>
    </g>
    <g id="text_28">
     <!-- pigma -->
     <g transform="translate(823.8825 68.00175)scale(0.144 -0.144)">
      <use xlink:href="#Verdana-70"/>
      <use x="62.3046875" xlink:href="#Verdana-69"/>
      <use x="89.74609375" xlink:href="#Verdana-67"/>
      <use x="152.05078125" xlink:href="#Verdana-6d"/>
      <use x="249.31640625" xlink:href="#Verdana-61"/>
     </g>
    </g>
   </g>
  </g>
 </g>
 <defs>
  <clipPath id="p69f0bbf81f">
   <rect height="352.8" width="557.145918367" x="321.704081633" y="44.1"/>
  </clipPath>
 </defs>
</svg>
